<?xml version="1.0" standalone="no"?>
<!DOCTYPE svg PUBLIC "-//W3C//DTD SVG 20010904//EN"
 "http://www.w3.org/TR/2001/REC-SVG-20010904/DTD/svg10.dtd">
<svg version="1.0" xmlns="http://www.w3.org/2000/svg"
 width="260.000000pt" height="260.000000pt" viewBox="0 0 260.000000 260.000000"
 preserveAspectRatio="xMidYMid meet">
<metadata>
Created by potrace 1.14, written by Peter Selinger 2001-2017
</metadata>
<g transform="translate(0.000000,260.000000) scale(0.100000,-0.100000)"
fill="#000000" stroke="none">
<path d="M1121 2318 c-90 -12 -228 -59 -308 -103 -41 -23 -98 -69 -144 -115
-122 -123 -179 -263 -179 -443 0 -204 81 -380 224 -486 l46 -34 -48 -28 c-66
-37 -158 -137 -190 -206 -24 -51 -27 -70 -27 -158 0 -89 3 -107 29 -162 34
-75 126 -168 206 -208 160 -81 320 -110 574 -102 195 5 307 26 428 80 258 115
410 361 394 639 -11 203 -95 359 -258 481 l-47 35 60 52 c117 102 163 201 157
340 -13 280 -265 432 -708 429 -80 -1 -174 -6 -209 -11z m494 -187 c96 -26
179 -74 219 -130 43 -60 48 -141 12 -214 -14 -29 -37 -64 -51 -77 -24 -22 -28
-23 -58 -11 -146 59 -296 87 -407 76 -119 -13 -180 -53 -180 -120 0 -55 44
-84 210 -135 237 -73 374 -145 473 -249 70 -73 103 -141 118 -245 32 -212 -69
-405 -261 -499 -114 -56 -212 -78 -378 -84 -283 -11 -495 44 -591 154 -83 93
-81 206 5 302 55 62 75 69 113 42 54 -39 176 -91 246 -106 90 -19 208 -19 272
0 91 27 140 112 98 172 -25 36 -73 59 -245 118 -247 85 -340 133 -426 219 -83
84 -112 146 -121 267 -16 203 76 370 252 461 140 71 234 89 455 84 126 -3 184
-9 245 -25z"/>
</g>
</svg>
